# xmcd
# Track frame offsets:
# 150
# 13619
# 37315
# 52315
# 68433
# 88012
#
# Disc length: 1384 seconds
# Revision: 0
# Processed by: cddbd v1.4PL0 Copyright (c) Steve Scherf et al.
# Submitted via: VisiTrax 2.9.5.181 - For more info visit www.synapsa.com
#
DISCID=4e056606
DTITLE=Blue Rockets - Demo
DYEAR=2002
DGENRE=Blues
TTITLE0=Blue rocket shuffle
TTITLE1=The trill is gone
TTITLE2=Baby please
TTITLE3=How long
TTITLE4=Top of the hill
TTITLE5=Fine little mama
EXTD=
EXTT0=
EXTT1=
EXTT2=
EXTT3=
EXTT4=
EXTT5=
PLAYORDER=
